<svg height="496pt" viewBox="-43 0 496 496.0077" width="496pt" xmlns="http://www.w3.org/2000/svg" xmlns:xlink="http://www.w3.org/1999/xlink"><linearGradient id="lg1"><stop offset="0" stop-color="#003f8a"/><stop offset=".518" stop-color="#00d7df"/><stop offset="1" stop-color="#006df0"/></linearGradient><linearGradient id="linear0" gradientUnits="userSpaceOnUse" x1="-19.223263" x2="478.776737" xlink:href="#lg1" y1="514.19169" y2="16.19169"/><linearGradient id="linear1" gradientUnits="userSpaceOnUse" x1="-144.847263" x2="353.152737" xlink:href="#lg1" y1="388.56769" y2="-109.43231"/><linearGradient id="linear2" gradientUnits="userSpaceOnUse" x1="-146.807263" x2="351.192737" xlink:href="#lg1" y1="386.59969" y2="-111.39231"/><path d="m409.234375 416.191406c-3.390625-9.785156-12.664063-16.304687-23.019531-16.183594h-.269532c-16.003906.164063-31.960937-1.734374-47.480468-5.648437-74.894532-19.09375-129.875-82.960937-137.617188-159.863281-7.742187-76.902344 33.398438-150.445313 102.984375-184.089844 9.472657-4.441406 14.972657-14.507812 13.601563-24.878906-1.175782-10.152344-8.78125-18.378906-18.808594-20.351563-84.613281-17.554687-172.269531 10.15625-231.417969 73.160157-47.183593 49.945312-71.339843 117.347656-66.621093 185.894531 9 127.855469 113.476562 228.058593 241.597656 231.707031 1.914062.046875 3.808594.070312 5.714844.070312 55.667968.011719 109.730468-18.6875 153.496093-53.097656 8.140625-6.253906 11.308594-17.054687 7.839844-26.71875zm-17.714844 14.160156c-67.671875 53.246094-159.265625 64.628907-237.914062 29.570313-78.648438-35.058594-131.410157-110.792969-137.042969-196.714844-4.207031-64.035156 18.300781-126.949219 62.164062-173.785156 43.867188-46.839844 105.175782-73.417969 169.347657-73.414063 15.882812 0 31.722656 1.621094 47.277343 4.839844 3.308594.609375 5.824219 3.320313 6.183594 6.664063.480469 3.546875-1.414062 6.992187-4.664062 8.496093-75.582032 36.617188-120.242188 116.550782-111.808594 200.113282s68.167969 152.960937 149.546875 173.734375c16.175781 4.058593 32.785156 6.125 49.464844 6.152343h2.175781c3.558594-.082031 6.761719 2.144532 7.917969 5.511719 1.167969 3.207031.09375 6.796875-2.648438 8.832031zm0 0" fill="url(#linear0)"/><path d="m253.503906 39.925781c-.050781-4.378906-3.617187-7.902343-8-7.902343h-.09375c-58.808594.5-114.820312 25.164062-154.890625 68.207031-13.535156 14.398437-25.046875 30.570312-34.214843 48.074219-2.046876 3.917968-.527344 8.753906 3.390624 10.800781 3.921876 2.042969 8.753907.523437 10.800782-3.394531 8.492187-16.207032 19.15625-31.179688 31.695312-44.503907 37.089844-39.867187 88.949219-62.722656 143.402344-63.199219 4.414062-.046874 7.957031-3.664062 7.910156-8.082031zm0 0" fill="url(#linear1)"/><path d="m52.464844 176.390625c-4.207032-1.355469-8.714844.953125-10.070313 5.160156-1.730469 5.375-3.28125 10.96875-4.617187 16.625-1 4.292969 1.660156 8.585938 5.953125 9.601563.601562.144531 1.21875.21875 1.839843.214844 3.710938-.003907 6.933594-2.554688 7.78125-6.167969 1.234376-5.234375 2.671876-10.402344 4.273438-15.375 1.347656-4.203125-.960938-8.703125-5.160156-10.058594zm0 0" fill="url(#linear2)"/></svg>